<svg width="33" height="33" viewBox="0 0 33 33" fill="none" xmlns="http://www.w3.org/2000/svg">
<path d="M11.0053 26.3898C11.0053 26.5227 10.8528 26.6289 10.6604 26.6289C10.4415 26.6488 10.2889 26.5426 10.2889 26.3898C10.2889 26.257 10.4415 26.1508 10.6338 26.1508C10.8329 26.1309 11.0053 26.2371 11.0053 26.3898ZM8.94225 26.091C8.89581 26.2238 9.02849 26.3766 9.2275 26.4164C9.39997 26.4828 9.59899 26.4164 9.63879 26.2836C9.67859 26.1508 9.55255 25.998 9.35354 25.9383C9.18106 25.8918 8.98868 25.9582 8.94225 26.091ZM11.8743 25.9781C11.682 26.0246 11.5493 26.1508 11.5692 26.3035C11.5891 26.4363 11.7616 26.5227 11.9606 26.4762C12.153 26.4297 12.2856 26.3035 12.2657 26.1707C12.2458 26.0445 12.0667 25.9582 11.8743 25.9781ZM16.2393 0.53125C7.03837 0.53125 0 7.52383 0 16.7344C0 24.0988 4.63033 30.4008 11.2441 32.6188C12.0933 32.7715 12.3918 32.2469 12.3918 31.8152C12.3918 31.4035 12.3719 29.1324 12.3719 27.7379C12.3719 27.7379 7.72828 28.734 6.75312 25.759C6.75312 25.759 5.99688 23.8266 4.90895 23.3285C4.90895 23.3285 3.38983 22.2859 5.01509 22.3059C5.01509 22.3059 6.66688 22.4387 7.5757 24.0191C9.02849 26.5824 11.4631 25.8453 12.4117 25.407C12.5643 24.3445 12.9954 23.6074 13.4731 23.1691C9.76483 22.7574 6.02341 22.2195 6.02341 15.8312C6.02341 14.0051 6.52758 13.0887 7.58897 11.9199C7.41649 11.4883 6.85263 9.70859 7.76145 7.41094C9.14789 6.9793 12.3387 9.20391 12.3387 9.20391C13.6655 8.83203 15.0917 8.63945 16.5047 8.63945C17.9177 8.63945 19.3439 8.83203 20.6707 9.20391C20.6707 9.20391 23.8615 6.97266 25.2479 7.41094C26.1567 9.71523 25.5929 11.4883 25.4204 11.9199C26.4818 13.0953 27.1319 14.0117 27.1319 15.8312C27.1319 22.2395 23.2246 22.7508 19.5164 23.1691C20.1267 23.6938 20.6441 24.6898 20.6441 26.2504C20.6441 28.4883 20.6242 31.2574 20.6242 31.802C20.6242 32.2336 20.9294 32.7582 21.7719 32.6055C28.4056 30.4008 32.9032 24.0988 32.9032 16.7344C32.9032 7.52383 25.4403 0.53125 16.2393 0.53125ZM6.44797 23.4348C6.36173 23.5012 6.38163 23.6539 6.49441 23.7801C6.60055 23.8863 6.75312 23.9328 6.83936 23.8465C6.9256 23.7801 6.9057 23.6273 6.79292 23.5012C6.68678 23.3949 6.53421 23.3484 6.44797 23.4348ZM5.73153 22.8969C5.68509 22.9832 5.75143 23.0895 5.8841 23.1559C5.99024 23.2223 6.12292 23.2023 6.16935 23.1094C6.21579 23.023 6.14945 22.9168 6.01678 22.8504C5.8841 22.8105 5.77797 22.8305 5.73153 22.8969ZM7.88085 25.2609C7.77471 25.3473 7.81452 25.5465 7.96709 25.6727C8.11967 25.8254 8.31204 25.8453 8.39828 25.7391C8.48452 25.6527 8.44472 25.4535 8.31204 25.3273C8.1661 25.1746 7.96709 25.1547 7.88085 25.2609ZM7.12461 24.2848C7.01847 24.3512 7.01847 24.5238 7.12461 24.6766C7.23075 24.8293 7.40986 24.8957 7.4961 24.8293C7.60224 24.743 7.60224 24.5703 7.4961 24.4176C7.40323 24.2648 7.23075 24.1984 7.12461 24.2848Z" fill="#77BEF8"/>
</svg>
