<svg width="45" height="50" viewBox="0 0 45 50" fill="none" xmlns="http://www.w3.org/2000/svg">
<g clip-path="url(#clip0_68_76)">
<path d="M44.2469 14.8014C44.2466 13.9689 44.0685 13.2333 43.7084 12.6022C43.3547 11.9812 42.8251 11.4609 42.1146 11.0495C36.2498 7.66817 30.3793 4.29718 24.5164 0.912409C22.9358 -9.55164e-06 21.4033 0.0334263 19.8344 0.958944C17.5001 2.33533 5.81272 9.03059 2.33005 11.0476C0.895788 11.878 0.197875 13.1485 0.19753 14.7998C0.19529 21.5999 0.19753 28.3999 0.19529 35.2C0.19529 36.0142 0.366105 36.7356 0.710322 37.3573C1.06419 37.9969 1.60129 38.5315 2.32816 38.9522C5.811 40.9692 17.4999 47.664 19.8337 49.0409C21.4033 49.9669 22.9358 50 24.5169 49.0874C30.38 45.7024 36.2508 42.3315 42.1165 38.9501C42.8433 38.5296 43.3804 37.9946 43.7343 37.3556C44.078 36.7337 44.2491 36.0124 44.2491 35.1981C44.2491 35.1981 44.2491 21.6016 44.2469 14.8014Z" fill="#A179DC"/>
<path d="M22.2896 24.9337L0.71032 37.3573C1.06419 37.9969 1.60128 38.5315 2.32815 38.9522C5.811 40.9692 17.4999 47.664 19.8337 49.0409C21.4033 49.9669 22.9358 50 24.5169 49.0874C30.38 45.7025 36.2508 42.3315 42.1165 38.9502C42.8433 38.5296 43.3804 37.9947 43.7343 37.3556L22.2896 24.9337Z" fill="#280068"/>
<path d="M44.2469 14.8014C44.2466 13.9689 44.0685 13.2333 43.7084 12.6022L22.2896 24.9338L43.7343 37.3555C44.078 36.7337 44.2488 36.0124 44.2492 35.1981C44.2492 35.1981 44.2492 21.6016 44.2469 14.8014Z" fill="#390091"/>
<path d="M34.9948 20.2893V22.6115H37.3172V20.2893H38.4785V22.6115H40.801V23.7727H38.4785V26.0947H40.801V27.2558H38.4785V29.5781H37.3172V27.2558H34.9948V29.5781H33.8335V27.2558H31.5112V26.0947H33.8335V23.7727H31.5112V22.6115H33.8335V20.2893H34.9948ZM37.3172 23.7725H34.9948V26.0947H37.3172V23.7725Z" fill="white"/>
<path d="M22.337 8.62676C28.3947 8.62676 33.6834 11.9162 36.5163 16.8058L36.4887 16.7587L29.3613 20.862C27.9572 18.4848 25.3831 16.8804 22.4299 16.8473L22.3368 16.8468C17.8338 16.8468 14.183 20.4972 14.183 24.9998C14.1816 26.419 14.5524 27.8137 15.2584 29.0448C16.6639 31.4982 19.3061 33.153 22.337 33.153C25.3867 33.153 28.0439 31.4772 29.4422 28.9976L29.4082 29.0571L36.5247 33.1793C33.7229 38.0275 28.5065 41.3068 22.5194 41.3722L22.337 41.3732C16.2602 41.3732 10.9565 38.0634 8.13072 33.148C6.75127 30.7483 5.962 27.9665 5.962 24.9998C5.962 15.9573 13.2931 8.62659 22.3368 8.62659L22.337 8.62676Z" fill="white"/>
</g>
<defs>
<clipPath id="clip0_68_76">
<rect width="44.4444" height="50" fill="white"/>
</clipPath>
</defs>
</svg>
