<svg width="25" height="28" viewBox="0 0 25 28" fill="none" xmlns="http://www.w3.org/2000/svg">
<g clip-path="url(#clip0_71_355)">
<path d="M8.88951 0.295351C9.32478 -0.103868 10 -0.098399 10.4353 0.30082C11.9754 1.71723 13.4208 3.24301 14.7712 4.89457C15.385 4.10707 16.0826 3.24848 16.8359 2.54848C17.2768 2.14379 17.9576 2.14379 18.3984 2.55394C20.3292 4.35863 21.9643 6.74301 23.1138 9.00707C24.2467 11.2383 25 13.5188 25 15.1266C25 22.1047 19.4308 28 12.5 28C5.49107 28 0 22.0993 0 15.1211C0 13.0211 0.993304 10.4563 2.53348 7.91879C4.0904 5.34301 6.28906 2.65785 8.88951 0.295351ZM12.5949 22.75C14.0067 22.75 15.2567 22.3672 16.4342 21.6016C18.7835 19.9938 19.4141 16.7782 18.0022 14.2516C17.7511 13.7594 17.1094 13.7266 16.7467 14.1422L15.3404 15.7446C14.9721 16.1602 14.308 16.1493 13.9621 15.7172C13.0413 14.5688 11.3951 12.518 10.4576 11.3532C10.106 10.9157 9.43638 10.9102 9.07924 11.3477C7.19308 13.6719 6.24442 15.1375 6.24442 16.7836C6.25 20.5297 9.07366 22.75 12.5949 22.75Z" fill="#77BEF8"/>
</g>
<defs>
<clipPath id="clip0_71_355">
<rect width="25" height="28" fill="white"/>
</clipPath>
</defs>
</svg>
