<svg width="46" height="44" viewBox="0 0 46 44" fill="none" xmlns="http://www.w3.org/2000/svg">
<path d="M15.3646 0.40625H28.9271L14.849 42.125C14.703 42.5529 14.4264 42.9243 14.0583 43.1868C13.6902 43.4494 13.249 43.5899 12.7969 43.5885H2.24479C1.90175 43.5893 1.56347 43.5082 1.25805 43.352C0.952628 43.1958 0.688885 42.969 0.488723 42.6904C0.288562 42.4118 0.157761 42.0895 0.107183 41.7502C0.0566056 41.4109 0.0877118 41.0644 0.197918 40.7396L13.3125 1.88542C13.4567 1.45554 13.7325 1.0819 14.1008 0.817381C14.469 0.552861 14.9112 0.410855 15.3646 0.411458V0.40625Z" fill="url(#paint0_linear_195_7)"/>
<path d="M35.0677 28.3854H13.5625C13.3625 28.3854 13.1672 28.4455 13.002 28.5581C12.8367 28.6707 12.7093 28.8305 12.6362 29.0166C12.5631 29.2027 12.5478 29.4065 12.5922 29.6014C12.6367 29.7964 12.7389 29.9734 12.8854 30.1094L26.7031 43.0052C27.1052 43.3828 27.6359 43.5932 28.1875 43.5938H40.3646L35.0677 28.3854Z" fill="#0078D4"/>
<path d="M15.3646 0.406278C14.9065 0.403941 14.4596 0.548286 14.0894 0.81819C13.7193 1.08809 13.4452 1.46939 13.3073 1.90628L0.213553 40.7084C0.096375 41.0345 0.0595104 41.384 0.106082 41.7273C0.152653 42.0707 0.281288 42.3978 0.481093 42.6809C0.680897 42.964 0.945985 43.1948 1.25391 43.3537C1.56183 43.5126 1.90351 43.5949 2.25001 43.5938H13.0781C13.4805 43.521 13.8563 43.3429 14.1674 43.0776C14.4785 42.8123 14.7137 42.4692 14.849 42.0834L17.4636 34.3854L26.7917 43.0834C27.1833 43.4067 27.6745 43.5851 28.1823 43.5886H40.3125L34.9896 28.3854H19.4792L28.974 0.411486L15.3646 0.406278Z" fill="url(#paint1_linear_195_7)"/>
<path d="M32.6875 1.875C32.5433 1.44651 32.2682 1.07417 31.9009 0.810602C31.5336 0.547038 31.0927 0.405589 30.6406 0.406252H15.526C15.9779 0.406373 16.4184 0.548126 16.7856 0.811581C17.1527 1.07504 17.4281 1.44694 17.5729 1.875L30.6875 40.7396C30.7975 41.0647 30.8285 41.4114 30.7779 41.7509C30.7273 42.0904 30.5965 42.413 30.3965 42.6919C30.1965 42.9709 29.9329 43.1982 29.6275 43.355C29.3222 43.5118 28.9839 43.5937 28.6406 43.5938H43.7552C44.0985 43.5937 44.4368 43.5118 44.7421 43.355C45.0474 43.1982 45.311 42.9709 45.5111 42.6919C45.7111 42.413 45.8419 42.0904 45.8925 41.7509C45.9431 41.4114 45.9121 41.0647 45.8021 40.7396L32.6875 1.875Z" fill="url(#paint2_linear_195_7)"/>
<defs>
<linearGradient id="paint0_linear_195_7" x1="20.3073" y1="3.60938" x2="6.22396" y2="45.2135" gradientUnits="userSpaceOnUse">
<stop stop-color="#114A8B"/>
<stop offset="1" stop-color="#0669BC"/>
</linearGradient>
<linearGradient id="paint1_linear_195_7" x1="24.7031" y1="23" x2="21.4479" y2="24.099" gradientUnits="userSpaceOnUse">
<stop stop-opacity="0.3"/>
<stop offset="0.07" stop-opacity="0.2"/>
<stop offset="0.32" stop-opacity="0.1"/>
<stop offset="0.62" stop-opacity="0.05"/>
<stop offset="1" stop-opacity="0"/>
</linearGradient>
<linearGradient id="paint2_linear_195_7" x1="22.9167" y1="2.39584" x2="38.375" y2="43.5833" gradientUnits="userSpaceOnUse">
<stop stop-color="#3CCBF4"/>
<stop offset="1" stop-color="#2892DF"/>
</linearGradient>
</defs>
</svg>
