<svg width="47" height="50" viewBox="0 0 47 50" fill="none" xmlns="http://www.w3.org/2000/svg">
<path fill-rule="evenodd" clip-rule="evenodd" d="M39.2395 35.5031L35.0647 32.7651L31.5857 38.5515L27.5391 37.3832L23.9685 42.8045L24.1516 44.5021L43.5242 40.9427L42.4072 28.8953L39.2395 35.5031ZM21.167 30.3009L24.2798 29.881C24.7742 30.1001 25.1221 30.1913 25.7446 30.3374C26.3393 30.5327 26.9679 30.6043 27.5915 30.5478C28.2151 30.4913 28.8205 30.3079 29.3701 30.0088C29.7363 29.8263 30.5237 29.0961 30.835 28.7128L43.5791 26.3946L44.8608 42.0926L23.0713 45.9989L21.167 30.3009ZM44.8242 24.6423L43.5608 24.8978L41.1438 0L0 4.74592L5.07202 45.8164L9.86939 45.0862C9.48486 44.5386 8.88062 43.8815 7.85522 43.0418C6.44531 41.8553 6.9397 39.8657 7.78198 38.6062C8.88062 36.4706 14.5935 33.769 14.2639 30.3556C14.1541 29.1326 13.9526 27.5081 12.7991 26.4129C12.7625 26.8692 12.8357 27.3255 12.8357 27.3255C12.8357 27.3255 12.3596 26.7049 12.1216 25.8835C11.9019 25.5732 11.7188 25.4819 11.4624 25.0621C11.2793 25.5367 11.3159 26.1026 11.3159 26.1026C11.3159 26.1026 10.9131 25.1899 10.8582 24.4232C10.6954 24.7355 10.5959 25.0766 10.5652 25.4272C10.5652 25.4272 10.0708 23.9669 10.199 23.2185C9.96094 22.5431 9.28345 21.2106 9.46655 18.1623C10.73 19.0384 13.4949 18.8376 14.5569 17.2496C14.9231 16.7202 15.1611 15.2965 14.3738 12.4672C13.8794 10.6601 12.6343 7.97679 12.1582 6.9546L12.1033 6.9911C12.4521 8.10934 12.7757 9.23526 13.0737 10.368C13.7146 12.9235 13.8977 13.7997 13.5864 14.9679C13.3484 15.9901 12.7625 16.6472 11.2793 17.3956C9.79614 18.1258 7.8186 16.3187 7.69043 16.2274C6.41724 15.223 5.48408 13.8531 5.01709 12.3029C4.88892 11.2989 5.58472 10.7148 5.93262 9.89341C5.57062 10.0052 5.21593 10.1393 4.87061 10.295C4.87061 10.295 5.5481 9.60136 6.37207 9.01725C6.73828 8.77995 6.92139 8.63392 7.2876 8.32361H6.33545C6.33545 8.32361 7.21436 7.86727 8.12988 7.52046C7.45239 7.48395 6.81152 7.52046 6.81152 7.52046C6.81152 7.52046 8.77075 6.64429 10.3271 6.00541C11.3892 5.56733 12.4329 5.6951 13.0188 6.53476C13.7695 7.62998 14.5752 8.23234 16.2964 8.59741C17.3401 8.14108 17.6514 7.90378 18.9697 7.53871C20.1233 6.26096 21.0388 6.11493 21.0388 6.11493C21.0388 6.11493 20.5811 6.51651 20.4712 7.17364C21.1304 6.66254 21.8445 6.22445 21.8445 6.22445C21.8445 6.22445 21.5698 6.57127 21.2952 7.11888L21.3684 7.21015C21.9056 6.90101 22.4622 6.62664 23.0347 6.38874L22.4854 7.11888C23.053 7.11888 24.2249 7.15538 24.6826 7.21015C27.3743 7.26491 27.9236 4.34434 28.949 3.97927C30.2307 3.52293 30.8166 3.24913 33.0139 5.40305C34.8999 7.2284 36.3831 10.5505 35.6506 11.2989C35.0281 11.9013 33.8196 11.0616 32.4829 9.38232C31.7166 8.44221 31.2002 7.32477 30.9814 6.13319C30.78 5.01972 29.9561 4.36259 29.9561 4.36259C29.9561 4.36259 30.4321 5.4213 30.4321 6.37048C30.4321 6.88158 30.4871 8.77995 31.311 9.85691C31.2378 10.0212 31.2012 10.6418 31.1096 10.7696C30.1575 9.60136 28.0884 8.7617 27.7588 8.54265C28.894 9.45533 31.4941 11.591 32.5195 13.6354C33.4534 15.5703 32.8857 17.3409 33.3801 17.7972C33.5083 17.925 35.4126 20.2797 35.7788 21.4844C36.4197 23.5471 35.8154 25.7192 34.9731 27.07L32.6477 27.4351C32.2998 27.3438 32.0801 27.289 31.7688 27.1065C31.9832 26.7311 32.1551 26.3332 32.2815 25.92L32.1533 25.6827C31.3478 26.7352 30.3392 27.6165 29.187 28.2747C28.6002 28.5818 27.9579 28.769 27.2976 28.8254C26.6374 28.8818 25.9724 28.8063 25.3418 28.6033C23.1392 27.8515 21.0737 26.748 19.2261 25.3359C19.2261 25.3359 19.2261 25.7375 19.3359 25.8287C20.0317 26.6319 21.6614 28.0739 23.2361 29.0779L19.8853 29.4429L21.4783 41.7458C20.7642 41.8553 20.6543 41.9101 19.8853 42.0196C19.3984 40.0387 18.1913 38.3085 16.4978 37.1642C15.097 36.3756 13.4498 36.141 11.8835 36.5071L11.792 36.6166C12.9272 36.5071 14.2822 36.6713 15.6738 37.5475C17.0471 38.4054 18.1458 40.6506 18.5486 41.9649C19.0796 43.6807 19.4275 45.5061 18.0359 47.4409C17.0471 48.8282 14.1357 49.5948 11.8103 47.952C12.4146 48.956 13.2751 49.7774 14.4104 49.9234C16.095 50.1607 17.7063 49.8686 18.8049 48.7369C19.7571 47.7695 20.2515 45.7434 20.1233 43.6259L21.6064 43.4069L22.1558 47.2219L46.875 44.2466L44.8425 24.6605L44.8242 24.6423ZM29.8096 14.2743C29.718 14.4385 29.6265 14.5298 29.7729 15.0409V15.0774L29.8096 15.1504L29.8828 15.2965C30.1758 15.8988 30.5054 16.4647 31.0364 16.7567C31.1829 16.7202 31.311 16.702 31.4758 16.702C31.9702 16.6837 32.2998 16.7567 32.5012 16.8663V16.3917C32.4646 15.6433 32.6477 14.3473 31.2012 13.6719C30.6519 13.4163 29.8645 13.4894 29.6082 13.8179L29.7363 13.8544C30.1208 13.9822 29.8645 14.11 29.7913 14.2743H29.8096ZM33.8928 21.3384C32.3473 21.1771 30.7874 21.4489 29.3884 22.1233C28.8757 22.5249 29.1138 23.2185 29.4983 23.4923C30.5603 24.2955 31.5125 24.8248 32.4829 24.697C33.0872 24.624 33.6182 23.6566 34.0027 22.7987C34.259 22.1963 34.259 21.5574 33.8745 21.3384H33.8928ZM23.2727 15.2234C23.6206 14.8949 21.5881 14.4751 20.0317 15.5338C18.8782 16.3187 18.8416 18.0162 19.9402 18.9654L20.2332 19.1845C21.151 18.7442 22.1341 18.4545 23.1445 18.3265C23.3826 18.071 23.6572 17.5964 23.584 16.775C23.4924 15.6433 22.6318 15.8258 23.2727 15.2234Z" fill="#77BEF8"/>
</svg>
