<svg width="57" height="43" viewBox="0 0 57 43" fill="none" xmlns="http://www.w3.org/2000/svg">
<g clip-path="url(#clip0_68_110)">
<path d="M49.0957 24.7474C47.0918 24.7474 45.3105 25.1953 43.8633 25.8672C43.3066 24.8593 42.8613 23.9635 42.75 23.1797C42.6387 22.3958 42.5273 21.9479 42.6387 20.9401C42.75 19.9323 43.3066 18.5885 43.3066 18.4765C43.3066 18.4765 43.1953 17.9166 42.082 17.9166C40.8574 17.9166 39.8555 18.1406 39.7441 18.4765L39.2988 20.1562C39.0762 21.164 37.0723 24.9713 35.8477 26.875C35.4023 26.0911 35.0684 25.4192 35.0684 24.9713C34.957 24.0755 34.8457 23.6276 34.957 22.6198C35.0684 21.6119 35.625 20.3802 35.625 20.2682C35.625 20.1562 35.5137 19.5963 34.4004 19.5963C33.1758 19.5963 32.1738 19.8203 32.0625 20.1562L31.6172 21.8359L27.832 30.3463L26.9414 32.3619C26.7187 32.8099 26.9414 32.3619 26.9414 32.4739L26.6074 33.0338L26.1621 33.5937C26.1621 33.5937 26.0508 32.8099 26.2734 31.8021C26.6074 29.6744 27.6094 26.3151 27.6094 26.0911C27.6094 26.0911 27.832 25.5312 26.9414 25.1953C26.1621 24.8593 25.9395 25.4192 25.8281 25.4192L25.7168 25.5312C25.7168 25.5312 26.6074 21.7239 23.9355 21.7239C22.377 21.7239 20.0391 23.6276 18.9258 25.1953L15.1406 27.3229L13.248 28.3307L13.1367 28.2187C9.9082 24.7474 4.00781 22.3958 4.3418 17.8047C4.3418 16.125 5.00976 11.7578 15.5859 6.38278C24.3809 2.0156 31.2832 3.24737 32.5078 5.93487C34.2891 9.74216 28.834 16.7968 19.7051 17.8047C16.2539 18.1406 14.4727 16.7968 14.0273 16.3489C13.582 15.789 13.4707 15.789 13.248 15.901C13.0254 16.013 13.1367 16.4609 13.248 16.7968C13.582 17.4687 14.6953 18.7005 16.5879 19.3724C18.2578 19.9323 22.2656 20.2682 27.1641 18.3646C32.6191 16.2369 36.9609 10.3021 35.7363 5.26299C34.4004 0.223929 26.0508 -1.45576 18.2578 1.34372C13.4707 3.02341 8.46094 5.71091 4.78711 9.18226C0.445312 13.2135 -0.222656 16.7968 -3.72529e-09 18.2526C1.11328 23.5156 8.23828 26.9869 11.1328 29.4505L10.7988 29.6744C9.35156 30.4583 3.78516 33.3698 2.44922 36.3932C0.890625 39.8646 2.67187 42.3281 3.89648 42.664C7.57031 43.7838 11.4668 41.8802 13.4707 38.8567C15.4746 35.7213 15.252 31.6901 14.3613 29.8984L14.25 29.7864L15.4746 29.1146L17.4785 27.9948C17.1445 29.0026 16.9219 30.1224 16.8105 31.8021C16.5879 33.7057 17.4785 36.2812 18.4805 37.289C18.9258 37.7369 19.4824 37.7369 19.8164 37.7369C21.041 37.7369 21.5977 36.7291 22.2656 35.4974L23.7129 32.3619C23.7129 32.3619 22.8223 36.9531 25.1602 36.9531C25.9395 36.9531 26.8301 35.9453 27.1641 35.3854L27.2754 35.2734L27.3867 35.0494L29.6133 30.9062L32.3965 24.5234L32.9531 26.763C33.1758 27.6588 33.7324 28.5547 34.0664 29.4505L33.6211 30.2343L32.7305 31.3541C31.6172 32.6979 30.1699 34.2656 30.0586 34.7135C29.8359 35.2734 29.8359 35.6093 30.2812 35.9453C30.6152 36.1692 31.1719 36.1692 31.7285 36.1692L33.7324 35.7213L35.625 34.7135C36.7383 33.9297 37.4062 32.6979 37.2949 31.1302C37.2949 30.3463 36.9609 29.4505 36.627 28.6666L36.9609 28.2187C38.7422 25.6432 40.0781 22.7317 40.0781 22.7317L40.6348 25.0833L41.6367 27.3229C40.308 28.3855 39.273 29.7736 38.6309 31.3541C37.9629 33.2578 38.4082 34.0416 39.4102 34.2656C39.8555 34.3776 40.5234 34.1536 40.9687 33.9297C41.5254 33.8177 42.1934 33.4817 42.8613 33.0338C43.9746 32.138 45.0879 31.0182 44.9766 29.4505C44.9766 28.7786 44.7539 27.9948 44.5312 27.3229C45.8672 26.763 47.7598 26.4271 49.9863 26.763C54.9961 27.3229 55.998 30.4583 55.7754 31.6901C55.5527 33.0338 54.5508 33.7057 54.2168 33.9297L53.7715 34.3776C53.8828 34.6015 53.9941 34.6015 54.3281 34.6015C54.6621 34.4896 56.8887 33.4817 57 31.1302C57.1113 27.9948 54.2168 24.6354 49.0957 24.7474ZM10.7988 37.625C9.24023 39.4166 6.90234 40.2005 5.90039 39.5286C4.89844 38.9687 5.23242 36.2812 7.34766 34.3776C8.57227 33.2578 10.1309 32.138 11.1328 31.4661L12.1348 30.9062L12.2461 30.7942L12.5801 30.6823C13.248 33.3698 12.5801 35.7213 10.7988 37.625ZM22.8223 29.4505C22.2656 30.9062 21.041 34.4896 20.373 34.2656C19.7051 34.1536 19.3711 31.3541 20.1504 28.6666C20.5957 27.3229 21.5977 25.7552 22.1543 25.0833C23.0449 24.0755 24.0469 23.7396 24.2695 24.1875C24.6035 24.7474 23.1562 28.5547 22.8223 29.4505ZM32.7305 34.2656L32.1738 34.3776V34.1536L33.9551 32.25L34.957 31.0182V31.1302C34.957 32.6979 33.3984 33.8177 32.7305 34.2656ZM40.3008 32.4739C40.0781 32.3619 40.1895 31.914 40.7461 30.6823C40.9687 30.1224 41.5254 29.2265 42.416 28.4427L42.6387 29.4505C42.6387 31.4661 41.1914 32.138 40.3008 32.4739Z" fill="#CF649A"/>
</g>
<defs>
<clipPath id="clip0_68_110">
<rect width="57" height="43" fill="white"/>
</clipPath>
</defs>
</svg>
