<svg width="11" height="13" viewBox="0 0 11 13" fill="none" xmlns="http://www.w3.org/2000/svg">
<g clip-path="url(#clip0_71_69)">
<path d="M5.10714 0H8.15424C8.46607 0 8.76562 0.129492 8.98661 0.358008L10.6538 2.08203C10.8748 2.31055 11 2.62031 11 2.94277V8.53125C11 9.2041 10.4721 9.75 9.82143 9.75H5.10714C4.45647 9.75 3.92857 9.2041 3.92857 8.53125V1.21875C3.92857 0.545898 4.45647 0 5.10714 0ZM1.17857 3.25H3.14286V4.875H1.57143V11.375H6.28571V10.5625H7.85714V11.7812C7.85714 12.4541 7.32924 13 6.67857 13H1.17857C0.527902 13 0 12.4541 0 11.7812V4.46875C0 3.7959 0.527902 3.25 1.17857 3.25Z" fill="#12151E"/>
</g>
<defs>
<clipPath id="clip0_71_69">
<rect width="11" height="13" fill="white"/>
</clipPath>
</defs>
</svg>
