<svg width="17" height="17" viewBox="0 0 17 17" fill="none" xmlns="http://www.w3.org/2000/svg">
<g clip-path="url(#clip0_98_5)">
<path d="M12.0029 0.0398524C12.169 0.109579 12.2885 0.258993 12.3217 0.43497L12.9824 4.01759L16.565 4.67501C16.741 4.70821 16.8904 4.82774 16.9602 4.99376C17.0299 5.15977 17.01 5.34903 16.907 5.49845L14.8385 8.50001L16.907 11.4983C17.01 11.6477 17.0299 11.8369 16.9602 12.0029C16.8904 12.169 16.741 12.2885 16.565 12.3217L12.9824 12.9824L12.3217 16.565C12.2885 16.741 12.169 16.8904 12.0029 16.9602C11.8369 17.0299 11.6477 17.01 11.4983 16.907L8.50001 14.8385L5.50177 16.907C5.35235 17.01 5.16309 17.0299 4.99708 16.9602C4.83106 16.8904 4.71153 16.741 4.67833 16.565L4.01759 12.9824L0.43497 12.3217C0.258993 12.2885 0.109579 12.169 0.0398524 12.0029C-0.0298742 11.8369 -0.00995232 11.6477 0.0929774 11.4983L2.16153 8.50001L0.0929774 5.50177C-0.00995232 5.35235 -0.0298742 5.16309 0.0398524 4.99708C0.109579 4.83106 0.258993 4.71153 0.43497 4.67833L4.01759 4.01759L4.67833 0.43497C4.71153 0.258993 4.83106 0.109579 4.99708 0.0398524C5.16309 -0.0298742 5.35235 -0.00995232 5.50177 0.0929774L8.50001 2.16153L11.4983 0.0929774C11.6477 -0.00995232 11.8369 -0.0298742 12.0029 0.0398524ZM5.31251 8.50001C5.31251 7.65463 5.64833 6.84388 6.24611 6.24611C6.84388 5.64833 7.65463 5.31251 8.50001 5.31251C9.34539 5.31251 10.1561 5.64833 10.7539 6.24611C11.3517 6.84388 11.6875 7.65463 11.6875 8.50001C11.6875 9.34539 11.3517 10.1561 10.7539 10.7539C10.1561 11.3517 9.34539 11.6875 8.50001 11.6875C7.65463 11.6875 6.84388 11.3517 6.24611 10.7539C5.64833 10.1561 5.31251 9.34539 5.31251 8.50001ZM12.75 8.50001C12.75 7.37284 12.3022 6.29183 11.5052 5.4948C10.7082 4.69777 9.62718 4.25001 8.50001 4.25001C7.37284 4.25001 6.29183 4.69777 5.4948 5.4948C4.69777 6.29183 4.25001 7.37284 4.25001 8.50001C4.25001 9.62718 4.69777 10.7082 5.4948 11.5052C6.29183 12.3022 7.37284 12.75 8.50001 12.75C9.62718 12.75 10.7082 12.3022 11.5052 11.5052C12.3022 10.7082 12.75 9.62718 12.75 8.50001Z" fill="#77BEF8"/>
</g>
<defs>
<clipPath id="clip0_98_5">
<rect width="17" height="17" fill="white"/>
</clipPath>
</defs>
</svg>
