<svg width="39" height="42" viewBox="0 0 39 42" fill="none" xmlns="http://www.w3.org/2000/svg">
<path d="M18.0458 8.74686C16.3448 6.19582 15.9771 2.78644 15.8969 1.3854C11.576 2.31978 7.28333 3.99582 7.53125 5.23019C7.5625 5.3854 7.75833 5.57186 8.08333 5.75311L7.575 6.66248C6.95417 6.31457 6.60521 5.91353 6.51042 5.43436C6.23021 4.03748 7.8125 2.77394 11.3458 1.57082C12.9681 1.03074 14.6206 0.585885 16.2948 0.238525L16.9167 0.113525V0.749983C16.9167 0.793734 16.9437 5.21665 18.9125 8.16977L18.0458 8.74686ZM19.7823 41.7916H19.5208C10.9875 41.7916 1.49062 39.1114 0.368749 34.626C-0.315626 31.8864 1.92292 28.8594 6.84167 25.875L7.38333 26.7646C2.95729 29.451 0.824999 32.1521 1.38021 34.3739C2.35417 38.2677 11.3542 40.6948 19.2479 40.7489C20.1865 39.3458 25.2292 31.1031 22.351 20.0479L23.3583 19.7854C26.6385 32.3812 20.0062 41.4906 19.9396 41.5812L19.7823 41.7916Z" fill="#CFD8DC"/>
<path d="M4.34479 37.9438C3.78333 37.9438 3.50521 37.8823 3.45937 37.8709C3.3692 37.8493 3.28645 37.804 3.21972 37.7397C3.15299 37.6753 3.10473 37.5943 3.07995 37.5049C3.05517 37.4156 3.05478 37.3213 3.07882 37.2317C3.10287 37.1422 3.15047 37.0608 3.21666 36.9959C3.29166 36.9209 10.7135 29.4875 11.7156 23.4771L12.7427 23.6479C11.8812 28.8188 6.78958 34.7136 4.76771 36.8844C6.7875 36.7688 11.8875 35.8229 21.6781 30.3427C14.0375 29.5052 12.8292 23.3886 12.8167 23.3229L13.8406 23.1344C13.8896 23.3906 15.1177 29.3959 23.4698 29.3959H23.4781C23.5929 29.3956 23.7045 29.4333 23.7956 29.503C23.8867 29.5727 23.9523 29.6706 23.9821 29.7814C24.0119 29.8922 24.0043 30.0097 23.9604 30.1158C23.9166 30.2218 23.8389 30.3104 23.7396 30.3677C12.0365 37.1479 6.36146 37.9427 4.34479 37.9438Z" fill="#CFD8DC"/>
<path d="M9.12917 40.4375C9.01841 40.4384 8.91028 40.4038 8.82055 40.3388C8.73082 40.2739 8.66418 40.182 8.63034 40.0765C8.59651 39.9711 8.59724 39.8576 8.63245 39.7525C8.66765 39.6475 8.73548 39.5565 8.82604 39.4927C8.86146 39.4667 10.7146 38.099 12.6865 35.0886C11.9001 34.7416 11.1362 34.346 10.399 33.9042C9.47396 33.349 8.775 32.7531 8.25313 32.1427C5.57604 32.849 3.10521 33.1281 0.935417 32.9438L1.02292 31.9063C2.97708 32.0719 5.19896 31.8406 7.60729 31.2396C5.96875 28.4396 7.47292 25.6604 7.49375 25.6229L8.40417 26.1302C8.33438 26.2573 7.08646 28.599 8.66354 30.9563C10.9563 30.2979 13.4021 29.324 15.9333 28.0584C16.5746 25.9269 17.0021 23.737 17.2094 21.5209C17.2177 21.4383 17.2455 21.359 17.2905 21.2894C17.3356 21.2198 17.3966 21.1619 17.4685 21.1205C17.5404 21.0792 17.6211 21.0556 17.7039 21.0517C17.7867 21.0477 17.8693 21.0636 17.9448 21.0979C17.9781 21.1136 21.3448 22.6511 23.7823 23.6542C23.8693 23.69 23.945 23.7486 24.0014 23.824C24.0577 23.8993 24.0926 23.9885 24.1024 24.0821C24.1121 24.1757 24.0963 24.2702 24.0566 24.3555C24.0169 24.4408 23.9549 24.5138 23.8771 24.5667C21.6147 26.1175 19.2565 27.5238 16.8167 28.7771C16.1843 30.8085 15.3251 32.7621 14.2552 34.6011C18.1115 36.0417 21.4583 36.0636 21.501 36.0636C21.6168 36.0631 21.7293 36.1013 21.821 36.1719C21.9126 36.2426 21.9781 36.3418 22.0072 36.4538C22.0362 36.5658 22.0271 36.6843 21.9813 36.7906C21.9354 36.8968 21.8555 36.9848 21.7542 37.0406C17.025 39.6677 9.49688 40.4073 9.17917 40.4375H9.12917ZM13.6969 35.5073C12.6135 37.1886 11.549 38.3959 10.7531 39.1844C12.8344 38.8782 16.4833 38.2073 19.5115 36.9563C17.5217 36.7108 15.5691 36.2243 13.6969 35.5073ZM9.38229 31.824C9.79167 32.2323 10.3021 32.6313 10.9344 33.0115C11.701 33.4719 12.4792 33.8625 13.2469 34.1938C14.1425 32.6834 14.8897 31.0898 15.4781 29.4354C13.3729 30.4375 11.3292 31.2375 9.38229 31.824ZM18.1688 22.3427C17.9747 24.0476 17.6569 25.7361 17.2177 27.3948C19.024 26.4277 20.7836 25.3759 22.4906 24.2427C21.0431 23.6252 19.6024 22.9918 18.1688 22.3427ZM12.6708 8.04169C12.5468 8.04133 12.4268 7.99705 12.3323 7.91669C10.6552 6.48127 8.68125 3.56044 8.59792 3.43648C8.53293 3.33973 8.50228 3.22398 8.51086 3.10775C8.51943 2.99151 8.56675 2.88152 8.64523 2.79535C8.72371 2.70919 8.82883 2.65184 8.94376 2.63248C9.05869 2.61312 9.17679 2.63287 9.27917 2.68856C9.29063 2.69169 10.2563 3.0896 16.7969 4.17919C16.8893 4.1941 16.9759 4.23368 17.0477 4.29376C17.1195 4.35384 17.1737 4.43218 17.2046 4.52052C17.2356 4.60886 17.2421 4.70391 17.2235 4.79564C17.2049 4.88737 17.1619 4.97238 17.099 5.04169C15.2677 7.07606 12.9542 7.9719 12.8563 8.00835C12.7968 8.03007 12.7341 8.04134 12.6708 8.04169ZM10.299 4.0271C10.9563 4.91148 11.9031 6.10627 12.7698 6.91148C13.8094 6.43104 14.7726 5.79995 15.6281 5.03856C12.9375 4.57919 11.2958 4.2521 10.299 4.0271Z" fill="#CFD8DC"/>
<path d="M16.7531 22.4167C16.6802 22.4166 16.6081 22.4012 16.5414 22.3716C16.4748 22.3419 16.4152 22.2985 16.3664 22.2443C16.3176 22.1901 16.2807 22.1263 16.2581 22.0569C16.2356 21.9875 16.2278 21.9142 16.2354 21.8417C16.5396 18.9781 12.1458 17.8292 12.101 17.8187C12.0119 17.796 11.9305 17.7501 11.8648 17.6857C11.7992 17.6212 11.7519 17.5406 11.7275 17.4519C11.7032 17.3632 11.7028 17.2697 11.7263 17.1808C11.7498 17.0919 11.7964 17.0108 11.8615 16.9458C12.0771 16.7302 17.2146 11.6354 23.6604 8.83748C23.7479 8.79951 23.844 8.78626 23.9385 8.79918C24.0329 8.8121 24.122 8.85069 24.196 8.91075C24.2701 8.97081 24.3262 9.05003 24.3583 9.13979C24.3904 9.22954 24.3973 9.32639 24.3781 9.41978C23.1427 15.4031 17.3885 21.9656 17.1448 22.2417C17.0953 22.2964 17.0349 22.3403 16.9674 22.3704C16.9 22.4006 16.827 22.4163 16.7531 22.4167ZM13.224 17.0885C14.4573 17.5521 16.6177 18.625 17.1646 20.5844C18.674 18.701 21.8958 14.3625 23.099 10.2364C18.5292 12.4344 14.6813 15.7489 13.224 17.0885Z" fill="#B71C1C"/>
<path d="M7.62396 26.5416L7.12917 25.625C9.09062 24.5677 11.3375 22.6219 13.1781 20.3604C11.6115 21.4333 10.7146 22.1677 10.6865 22.1916L10.0208 21.3896C10.0615 21.3562 11.8583 19.8823 14.8448 18.0354C15.6646 16.7166 16.2948 15.3604 16.6187 14.0604C16.674 13.8396 16.7219 13.626 16.7604 13.4198C14.7552 12.7041 12.9052 12.2802 11.6344 12.0979C11.5402 12.0846 11.4514 12.0458 11.3777 11.9857C11.304 11.9255 11.2482 11.8463 11.2163 11.7567C11.1844 11.6671 11.1777 11.5704 11.1968 11.4772C11.216 11.384 11.2603 11.2979 11.325 11.2281C11.4135 11.1323 13.5292 8.8656 16.1729 7.62081C16.2733 7.57357 16.3861 7.55961 16.495 7.58097C16.6038 7.60233 16.703 7.65789 16.7781 7.73956C16.8479 7.8156 18.2781 9.42185 17.9146 12.7448C19.1177 13.2135 20.3573 13.7833 21.551 14.4614C24.425 13.1698 27.6885 12.0073 31.1646 11.3052C31.2561 11.2879 31.3506 11.2949 31.4385 11.3256C31.5265 11.3564 31.6048 11.4097 31.6656 11.4802C31.7875 11.626 31.8208 11.8271 31.7521 12.0041C30.3979 15.475 26.7667 19.1823 26.6125 19.3385C26.5605 19.3906 26.4981 19.4312 26.4294 19.4576C26.3606 19.484 26.2871 19.4956 26.2136 19.4916C26.1401 19.4877 26.0682 19.4683 26.0027 19.4348C25.9372 19.4012 25.8795 19.3542 25.8333 19.2969C24.6667 17.8302 23.1417 16.6156 21.4969 15.6271C19.463 16.5693 17.486 17.6298 15.576 18.8031C13.4719 22.0875 10.2958 25.1031 7.62396 26.5416ZM22.6375 15.1208C23.9812 15.9875 25.2323 17.0062 26.2667 18.1916C27.1292 17.2562 29.199 14.8916 30.3729 12.5437C27.6125 13.1791 25 14.0989 22.6375 15.1208ZM17.749 13.7937C17.7146 13.9635 17.675 14.1375 17.6312 14.3146C17.4125 15.1885 17.0646 16.0864 16.6187 16.9823C17.8506 16.2778 19.1077 15.6183 20.3875 15.0052C19.5308 14.5535 18.6499 14.1491 17.749 13.7937ZM12.8 11.2416C13.9573 11.4687 15.3833 11.8396 16.9052 12.3729C17.0635 10.4531 16.5448 9.27706 16.2312 8.75623C14.7979 9.50414 13.5427 10.5562 12.8 11.2416Z" fill="#B71C1C"/>
<path d="M12.8021 16.2709C12.8021 20.8334 9 24.4584 6.26042 27.1042C5.80208 27.5521 4.25 27.625 4.25 27.625C4.63542 27.2292 5.07292 26.8125 5.54167 26.3646C8.14583 23.8438 11.7604 20.3959 11.7604 16.2709C11.7604 11.3854 9.79167 9.45835 8.23958 7.91669C7.55208 7.21877 6.96875 6.5521 6.61458 5.7396L6.9375 5.60419C7.29167 5.76044 7.69792 5.93752 8.01042 6.07294C8.26042 6.43752 8.59375 6.79169 8.97917 7.1771C10.5729 8.77085 12.8021 10.9584 12.8021 16.2709Z" fill="#B71C1C"/>
<path d="M38.724 17.6188C38.724 17.6188 38.0938 17.7084 37.9167 17.7292C28.7917 18.7396 19.375 21.3646 13.9896 23.5209C12.0417 24.3021 10.0208 25.25 8.17708 26.3125C8.16667 26.3229 8.15625 26.3229 8.13542 26.3334C7.05208 26.9584 4.41667 28.25 2.28125 29.3854C5.40625 26.0625 11.2604 23.5 13.5938 22.5625C18.875 20.4479 27.9479 17.8959 36.875 16.8021C35.8229 15.5729 33.25 12.9688 28.1875 11.0313C25.2292 9.88544 20.7292 9.2396 16.7604 8.66669C10.4479 7.76044 6.85417 7.15627 6.51042 5.43752C6.4375 5.09377 6.48958 4.75002 6.64583 4.41669C6.98958 4.97919 7.47917 5.37502 7.80208 5.60419C7.95833 5.70835 8.07292 5.77085 8.11458 5.79169L8.125 5.8021C9.60417 6.58335 13.5938 7.15627 16.9167 7.63544C20.9375 8.21877 25.4896 8.87502 28.5625 10.0521C35.7188 12.8125 38.1875 16.7604 38.2917 16.9271C38.3854 17.0834 38.724 17.6188 38.724 17.6188Z" fill="#B71C1C"/>
</svg>
