<svg width="45" height="51" viewBox="0 0 45 51" fill="none" xmlns="http://www.w3.org/2000/svg">
<path d="M4.09091 45.8203L0 0H45L40.9091 45.8203L22.4501 51" fill="#E34F26"/>
<path d="M23 47L37.5761 42.9471L41 4H23" fill="#EF652A"/>
<path d="M23 20.4H15.0775L14.5493 14.6H23V9H8L9.58451 26.1H23V20.4ZM23 35.1L16.2394 33.4L15.8169 28.9H9.90141L10.6408 37.8L23 41V35.1Z" fill="#ECEDEE"/>
<path d="M23 26.1H29.8511L29.156 33.4L23 35.1V41L34.4184 37.8L36.0071 20.4H23V26.1ZM23 9V14.6H36.5035L37 9H23Z" fill="white"/>
</svg>
