<svg width="12" height="12" viewBox="0 0 12 12" fill="none" xmlns="http://www.w3.org/2000/svg">
<path d="M11.6741 0.131218C11.9108 0.29528 12.035 0.578874 11.9905 0.862468L10.4905 10.6125C10.4553 10.8398 10.3171 11.039 10.1155 11.1515C9.91394 11.264 9.67253 11.2781 9.45925 11.189L6.65613 10.0242L5.05066 11.7609C4.84207 11.9882 4.51394 12.0632 4.22566 11.9507C3.93738 11.8382 3.74988 11.5593 3.74988 11.25V9.29059C3.74988 9.19684 3.78503 9.10778 3.84832 9.03981L7.77644 4.75309C7.91238 4.60544 7.90769 4.37809 7.76707 4.23747C7.62644 4.09684 7.3991 4.08747 7.25144 4.22106L2.48425 8.45622L0.414722 7.42028C0.166284 7.29606 0.00690915 7.04762 -0.000122097 6.77106C-0.00715335 6.4945 0.138159 6.23669 0.377222 6.0984L10.8772 0.098405C11.128 -0.0445637 11.4374 -0.0305012 11.6741 0.131218Z" fill="#12151E"/>
</svg>
