<svg width="45" height="50" viewBox="0 0 45 50" fill="none" xmlns="http://www.w3.org/2000/svg">
<path d="M41.7771 25.1779C41.7814 24.5362 41.649 23.9009 41.3887 23.3141C41.1284 22.7273 40.7461 22.2023 40.2672 21.774C39.7882 21.3456 39.2235 21.0236 38.6104 20.8293C37.9974 20.635 37.3499 20.5728 36.7109 20.6469L43 2H16.0968L22.3859 20.6469C21.7607 20.5988 21.1322 20.6803 20.5402 20.8864C19.9481 21.0924 19.4053 21.4185 18.9458 21.8442C18.4863 22.2698 18.1201 22.7858 17.8703 23.3595C17.6205 23.9333 17.4925 24.5524 17.4944 25.1779C17.4944 27.2692 18.8919 29.0119 20.8136 29.5347C18.5026 33.4433 14.9304 36.4539 10.6812 38.0739C7.88607 36.6797 6.6632 33.3686 7.71137 30.5803L8.23546 29.7089C9.24557 29.4672 10.1421 28.8874 10.7756 28.0662C11.4091 27.2449 11.7413 26.2319 11.7167 25.1959C11.6922 24.16 11.3125 23.1637 10.6408 22.3733C9.96917 21.5828 9.0462 21.0458 8.02578 20.8519C7.00535 20.658 5.94914 20.8189 5.03322 21.3077C4.11729 21.7966 3.39701 22.5838 2.99244 23.5382C2.58787 24.4926 2.52347 25.5566 2.80996 26.5526C3.09646 27.5486 3.71654 28.4166 4.56684 29.0119C3.34397 31.4516 1.7717 34.24 1.24761 37.3768C0.548829 41.0365 1.24761 45.0447 4.39215 47.3102C12.0788 52.5383 20.2895 44.1733 28.8496 41.9078C31.9941 41.2108 35.4881 41.385 38.2832 39.6423C40.3796 38.5967 41.7771 36.5055 42.1265 34.24C42.4759 32.1487 41.9518 29.8832 40.5543 28.1405C41.253 27.2692 41.7771 26.2235 41.7771 25.1779Z" fill="#99425B"/>
<path d="M41.4855 33.6879C41.1341 35.6383 39.904 37.4113 38.1468 38.4752C36.3896 39.3617 34.4566 39.7163 32.3479 40.0709L29.0092 40.6028C26.0219 41.3121 23.0346 42.7305 20.2231 44.1489C14.5999 46.9858 9.85542 49.4681 5.28662 46.2766C1.94788 43.9716 2.12361 39.539 2.47505 37.234C2.8265 35.1064 3.88084 32.9787 4.75945 31.0284L5.28662 30.1418L6.6924 30.4965C5.81379 33.6879 7.21957 37.0567 10.3826 38.8298L10.9098 39.0071L11.2612 38.8298C13.897 37.9433 16.1814 36.5248 18.1144 34.5745C19.5202 33.3333 20.5745 31.9149 21.6289 30.3191C23.142 30.5216 24.6733 30.1139 25.8905 29.1845C27.1077 28.2551 27.9126 26.879 28.1306 25.3546H31.8208C31.9536 26.3373 32.3318 27.2698 32.9198 28.0645C33.5079 28.8591 34.2865 29.49 35.1825 29.8977C36.0785 30.3054 37.0625 30.4767 38.0421 30.3953C39.0217 30.3139 39.9648 29.9827 40.7826 29.4326C41.4855 30.6738 41.6613 32.2695 41.4855 33.6879ZM7.39529 21.0993C8.32739 21.0993 9.2213 21.4729 9.88039 22.1379C10.5395 22.8029 10.9098 23.7049 10.9098 24.6454C10.9098 25.5859 10.5395 26.4878 9.88039 27.1529C9.2213 27.8179 8.32739 28.1915 7.39529 28.1915C6.4632 28.1915 5.56929 27.8179 4.9102 27.1529C4.25111 26.4878 3.88084 25.5859 3.88084 24.6454C3.88084 23.7049 4.25111 22.8029 4.9102 22.1379C5.56929 21.4729 6.4632 21.0993 7.39529 21.0993ZM18.993 24.6454C18.993 23.7049 19.3633 22.8029 20.0224 22.1379C20.6815 21.4729 21.5754 21.0993 22.5075 21.0993C23.4396 21.0993 24.3335 21.4729 24.9926 22.1379C25.6517 22.8029 26.0219 23.7049 26.0219 24.6454C26.0219 25.5859 25.6517 26.4878 24.9926 27.1529C24.3335 27.8179 23.4396 28.1915 22.5075 28.1915C21.5754 28.1915 20.6815 27.8179 20.0224 27.1529C19.3633 26.4878 18.993 25.5859 18.993 24.6454ZM33.578 20.3901C32.6994 21.0993 32.1722 22.1631 31.9965 23.0496H27.9549C27.7792 21.9858 27.0763 21.0993 26.1976 20.3901L29.8878 12.9433L33.578 20.3901ZM17.9387 2.30496H41.837L36.2139 18.9716L35.511 19.1489L29.8878 7.80142L24.2647 19.1489L23.5618 18.9716L17.9387 2.30496ZM40.9584 24.6454C40.9584 25.5859 40.5881 26.4878 39.929 27.1529C39.2699 27.8179 38.376 28.1915 37.4439 28.1915C36.7488 28.1915 36.0693 27.9835 35.4914 27.5939C34.9134 27.2042 34.463 26.6504 34.197 26.0024C33.931 25.3545 33.8614 24.6415 33.997 23.9536C34.1326 23.2657 34.4673 22.6339 34.9588 22.1379C35.4503 21.642 36.0765 21.3043 36.7583 21.1674C37.44 21.0306 38.1467 21.1008 38.7888 21.3692C39.431 21.6376 39.9799 22.0921 40.3661 22.6753C40.7523 23.2584 40.9584 23.944 40.9584 24.6454ZM43.2428 24.6454C43.2428 21.8085 41.1341 19.5035 38.4983 18.9716L45 0H14.7757L21.2774 18.9716C20.1549 19.2136 19.1288 19.7862 18.329 20.617C17.5293 21.4477 16.9919 22.4993 16.7849 23.6385C16.5779 24.7777 16.7106 25.9533 17.1663 27.0163C17.6219 28.0793 18.38 28.982 19.3445 29.6099C17.2935 32.6553 14.4302 35.0527 11.0855 36.5248C8.9768 35.1064 8.09819 32.8014 8.9768 30.6738L9.15252 30.4965L9.32825 30.1418C10.5213 29.7341 11.5503 28.9455 12.2597 27.8953C12.9691 26.845 13.3203 25.5903 13.2601 24.3208C13.2 23.0513 12.7318 21.836 11.9264 20.8588C11.121 19.8816 10.0222 19.1956 8.79605 18.9045C7.56992 18.6134 6.28319 18.7331 5.13044 19.2454C3.97769 19.7577 3.02161 20.6348 2.40677 21.7441C1.79193 22.8533 1.55177 24.1344 1.72261 25.3936C1.89345 26.6528 2.466 27.8217 3.35367 28.7234L2.65078 30.1418C1.77216 32.0922 0.717823 34.3972 0.190654 36.8794C-0.512237 41.844 0.717823 45.922 4.05656 48.0496C5.98951 49.4681 7.92246 50 10.0311 50C13.7213 50 17.5872 48.0496 21.2774 46.2766C23.9132 44.8582 26.7248 43.4397 29.5364 42.9078L32.6994 42.1986C34.9838 42.0213 37.2682 41.6667 39.2011 40.4255C40.2664 39.8229 41.1984 39.0069 41.9398 38.0277C42.6813 37.0485 43.2165 35.9267 43.5127 34.7312C43.8089 33.5357 43.8598 32.2918 43.6623 31.0757C43.4648 29.8596 43.023 28.6971 42.3642 27.6596C42.8913 26.7731 43.2428 25.7092 43.2428 24.6454Z" fill="white"/>
</svg>
