<svg width="39" height="39" viewBox="0 0 39 39" fill="none" xmlns="http://www.w3.org/2000/svg">
<path d="M3.04688 0H35.9531C37.6359 0 39 1.36409 39 3.04688V35.9531C39 37.6359 37.6359 39 35.9531 39H3.04688C1.36409 39 0 37.6359 0 35.9531V3.04688C0 1.36409 1.36409 0 3.04688 0Z" fill="#3178C6"/>
<path d="M22.9358 30.6055V34.9211C23.6304 35.2808 24.452 35.5505 25.4004 35.7303C26.3488 35.9102 27.3484 36 28.3993 36C29.4233 36 30.3963 35.9011 31.318 35.7033C32.2396 35.5055 33.0479 35.1795 33.7424 34.7256C34.4371 34.2716 34.987 33.6781 35.3923 32.9453C35.7974 32.2127 36 31.3069 36 30.228C36 29.4458 35.8842 28.7602 35.6527 28.1712C35.4237 27.5863 35.0833 27.0525 34.6508 26.6002C34.2145 26.1416 33.6912 25.7303 33.0813 25.3661C32.4713 25.002 31.7833 24.6581 31.0174 24.3345C30.4563 24.1006 29.9533 23.8737 29.5079 23.6534C29.0627 23.4331 28.6842 23.2084 28.3726 22.9791C28.0608 22.7498 27.8204 22.507 27.6512 22.2508C27.482 21.9945 27.3974 21.7047 27.3974 21.3809C27.3974 21.0842 27.473 20.8169 27.6244 20.5786C27.7758 20.3403 27.9897 20.1358 28.2657 19.965C28.5418 19.7941 28.8801 19.6616 29.2809 19.567C29.6816 19.4727 30.127 19.4255 30.6167 19.4255C30.973 19.4255 31.3492 19.4525 31.7454 19.5064C32.1418 19.5603 32.5403 19.6434 32.9411 19.7559C33.3406 19.8679 33.7313 20.0099 34.1098 20.1808C34.4769 20.3451 34.828 20.5438 35.1585 20.7741V16.7417C34.5083 16.49 33.7981 16.3034 33.0278 16.182C32.2576 16.0606 31.3737 16 30.3762 16C29.361 16 28.3993 16.1102 27.491 16.3305C26.5826 16.5506 25.7833 16.8945 25.0931 17.362C24.403 17.8297 23.8576 18.4253 23.4568 19.1491C23.0561 19.8728 22.8557 20.7381 22.8557 21.7452C22.8557 23.0308 23.2229 24.1277 23.9578 25.0358C24.6925 25.9437 25.8077 26.7125 27.3039 27.3419C27.8562 27.5691 28.404 27.8075 28.9469 28.0567C29.4546 28.2905 29.8931 28.5331 30.2627 28.7848C30.6323 29.0366 30.924 29.3108 31.1377 29.6075C31.3514 29.9042 31.4582 30.2414 31.4582 30.6191C31.46 30.8909 31.3909 31.1583 31.2578 31.3945C31.1244 31.6327 30.9216 31.8395 30.6501 32.0148C30.3786 32.1902 30.0401 32.3272 29.6349 32.4261C29.2297 32.525 28.7555 32.5745 28.2122 32.5745C27.2861 32.5745 26.3689 32.4105 25.4606 32.0822C24.5521 31.7541 23.7105 31.2619 22.9358 30.6055ZM15.8168 19.8659H21.3093V16.3125H6V19.8659H11.4657V35.6875H15.8168V19.8659Z" fill="white"/>
</svg>
