<svg width="45" height="50" viewBox="0 0 45 50" fill="none" xmlns="http://www.w3.org/2000/svg">
<g clip-path="url(#clip0_68_108)">
<path d="M22.1453 49.9073C21.4576 49.9073 20.8157 49.7239 20.2197 49.403L14.1216 45.7808C13.2047 45.2765 13.6631 45.0931 13.9382 45.0014C15.1761 44.5888 15.4054 44.4971 16.6891 43.7633C16.8268 43.6716 17.0102 43.7175 17.1476 43.8092L21.8244 46.6061C22.0078 46.6978 22.237 46.6978 22.3746 46.6061L40.6687 36.0149C40.8521 35.9232 40.9438 35.7398 40.9438 35.5106V14.3737C40.9438 14.1445 40.8521 13.9611 40.6687 13.8694L22.3746 3.32388C22.1912 3.23218 21.9619 3.23218 21.8244 3.32388L3.53028 13.8696C3.34689 13.9613 3.25519 14.1905 3.25519 14.3739V35.5106C3.25519 35.694 3.34689 35.9232 3.53028 36.0149L8.52803 38.9033C11.2332 40.2787 12.9294 38.6741 12.9294 37.0694V16.2076C12.9294 15.9325 13.1588 15.6574 13.4798 15.6574H15.8182C16.0933 15.6574 16.3683 15.8867 16.3683 16.2076V37.0692C16.3683 40.6914 14.3967 42.8004 10.958 42.8004C9.90346 42.8004 9.0782 42.8004 6.73997 41.6542L1.92561 38.9033C0.733564 38.2154 0 36.9317 0 35.5562V14.4197C0 13.0443 0.733564 11.7606 1.92561 11.0727L20.2197 0.481493C21.3659 -0.160376 22.9247 -0.160376 24.0709 0.481493L42.3651 11.0727C43.5571 11.7604 44.2907 13.0441 44.2907 14.4197V35.5564C44.2907 36.9318 43.5571 38.2156 42.3651 38.9033L24.0709 49.4948C23.4749 49.7699 22.7872 49.9074 22.1453 49.9074V49.9073ZM27.7848 35.3728C19.7611 35.3728 18.1106 31.705 18.1106 28.5872C18.1106 28.3121 18.3398 28.037 18.6607 28.037H21.0448C21.3199 28.037 21.5493 28.2204 21.5493 28.4955C21.9161 30.9254 22.9706 32.1177 27.8306 32.1177C31.682 32.1177 33.3327 31.2465 33.3327 29.1834C33.3327 27.9912 32.8742 27.1201 26.8678 26.5239C21.8702 26.0196 18.7524 24.9192 18.7524 20.9305C18.7524 17.2164 21.8701 15.0157 27.0971 15.0157C32.9657 15.0157 35.8543 17.033 36.2211 21.4346C36.2211 21.5721 36.1753 21.7097 36.0836 21.8472C35.9919 21.9389 35.8543 22.0306 35.7168 22.0306H33.3327C33.1033 22.0306 32.8742 21.8472 32.8282 21.618C32.278 19.0964 30.8567 18.2711 27.0971 18.2711C22.8791 18.2711 22.3746 19.7382 22.3746 20.8386C22.3746 22.1683 22.9706 22.5808 28.6559 23.3144C34.2955 24.0479 36.9547 25.1026 36.9547 29.0457C36.9088 33.0805 33.6078 35.3728 27.7848 35.3728Z" fill="#539E43"/>
</g>
<defs>
<clipPath id="clip0_68_108">
<rect width="44.2907" height="50" fill="white"/>
</clipPath>
</defs>
</svg>
