<svg width="25" height="20" viewBox="0 0 25 20" fill="none" xmlns="http://www.w3.org/2000/svg">
<path d="M15.3428 0.0489893C14.6787 -0.142417 13.9873 0.244302 13.7959 0.908364L8.7959 18.4084C8.60449 19.0724 8.99121 19.7638 9.65527 19.9552C10.3193 20.1466 11.0107 19.7599 11.2021 19.0959L16.2021 1.59586C16.3936 0.931802 16.0068 0.240396 15.3428 0.0489893ZM18.4912 4.7404C18.0029 5.22868 18.0029 6.02165 18.4912 6.50993L21.9795 10.0021L18.4873 13.4943C17.999 13.9826 17.999 14.7756 18.4873 15.2638C18.9756 15.7521 19.7686 15.7521 20.2568 15.2638L24.6318 10.8888C25.1201 10.4006 25.1201 9.60758 24.6318 9.1193L20.2568 4.7443C19.7686 4.25602 18.9756 4.25602 18.4873 4.7443L18.4912 4.7404ZM6.51074 4.7404C6.02246 4.25211 5.22949 4.25211 4.74121 4.7404L0.366211 9.1154C-0.12207 9.60368 -0.12207 10.3966 0.366211 10.8849L4.74121 15.2599C5.22949 15.7482 6.02246 15.7482 6.51074 15.2599C6.99902 14.7716 6.99902 13.9787 6.51074 13.4904L3.01855 10.0021L6.51074 6.50993C6.99902 6.02165 6.99902 5.22868 6.51074 4.7404Z" fill="#77BEF8"/>
</svg>
