<svg width="50" height="49" viewBox="0 0 50 49" fill="none" xmlns="http://www.w3.org/2000/svg">
<path d="M46.0968 37.8665C43.3645 37.8665 41.2178 38.0619 39.4613 38.8432C38.8758 39.0385 38.0952 39.0385 38.0952 39.6245L38.6807 40.7964C39.071 41.3824 39.6565 42.359 40.4371 42.945L42.5839 44.5076L46.6823 46.4608L48.829 48.2187L50 49L49.4145 47.8281L48.4387 46.8514C47.4629 45.4842 46.2919 44.3122 44.9258 43.3356C43.7549 42.7496 41.4129 41.5777 41.0226 40.4058H40.8274L43.1694 39.8198L46.6823 39.2338L48.2436 38.8432V38.4525L46.4871 36.4993C44.9258 34.9367 42.9742 33.5694 41.0226 32.2022L37.5097 30.6396C37.1194 30.4442 36.3387 30.2489 36.1436 29.8583L34.7775 27.3191L31.8501 21.4593L30.2888 17.5529C26.7759 11.6932 22.8727 8.17733 17.0178 4.85683C15.8469 4.07553 14.2856 3.88021 12.7243 3.48956L10.1872 3.29424L8.62593 2.1223C6.67432 0.950353 1.60015 -1.78418 0.234021 1.73165C-0.741783 3.88021 1.60015 6.02877 2.38079 7.20071L4.13724 9.73992L4.72272 11.4978C5.3082 13.0604 5.69852 14.8183 6.47916 16.1856L7.65013 18.1388C8.04045 18.5295 8.43077 18.7248 8.62593 19.3108C8.04045 20.0921 8.04045 21.0687 7.84529 21.85C6.47916 25.7565 7.06465 30.4442 8.82109 33.3741C9.21141 34.1554 10.5775 36.1086 12.334 35.3273C13.8953 34.7414 13.5049 32.7881 13.8953 31.0302L14.0904 30.2489L15.6517 32.9835C16.6275 34.7414 18.384 36.4993 19.9453 37.6712C20.7259 38.2572 21.5065 39.2338 22.4823 39.6245L21.7017 38.8432L19.9453 36.8899C18.384 34.9367 17.213 32.7881 16.042 30.6396L14.6759 27.3191L14.0904 26.1471C13.5049 26.9284 12.7243 27.5144 12.334 28.491C11.7485 29.8583 11.7485 31.8115 11.5533 33.5694H11.3582C10.1872 33.3741 9.7969 32.2022 9.40657 31.2255C8.43077 28.8817 8.23561 24.9752 9.21141 22.2406C9.40657 21.4593 10.3824 19.3108 9.99206 18.5295C9.7969 17.9435 9.21141 17.5529 8.82109 17.1622L7.45497 14.8183L5.50336 8.95863L3.74691 6.41942C3.16143 5.4428 2.38079 4.85683 1.79531 3.68489C1.60015 3.29424 1.40499 2.70827 1.79531 2.31762L2.18563 1.92697C2.57595 1.53632 3.94207 1.92697 4.3324 2.1223C5.50336 2.70827 6.67432 3.09891 7.65013 3.88021L9.21141 5.05215H9.99206C11.163 5.24748 12.334 5.05215 13.3098 5.4428C15.0662 6.02877 16.8227 6.81007 18.1888 7.78669C22.6775 10.5212 26.3856 14.623 28.7275 19.3108C29.313 20.0921 29.313 20.8734 29.7033 21.6547L32.0452 26.7331C32.8259 28.2957 33.4113 29.8583 34.3871 31.2255C34.9726 32.0068 37.1194 32.3975 37.9 32.7881L40.242 33.5694L43.7549 35.9133C44.1452 36.304 45.9016 37.2806 46.0968 37.8665Z" fill="#77BEF8"/>
</svg>
