<svg width="50" height="49" viewBox="0 0 50 49" fill="none" xmlns="http://www.w3.org/2000/svg">
<path d="M24.7683 0C12.1011 0 12.8917 5.48079 12.8917 5.48079L12.9073 11.1591H24.9944V12.8627H8.10329C8.10329 12.8627 0 11.9448 0 24.6985C0 37.4492 7.0742 36.998 7.0742 36.998H11.2966V31.0801C11.2966 31.0801 11.0689 24.0218 18.2585 24.0218H30.2458C30.2458 24.0218 36.9817 24.1307 36.9817 17.5267V6.60712C36.9817 6.60712 38.0045 0 24.7683 0ZM18.1026 3.81773C18.6795 3.81773 19.2327 4.04638 19.6406 4.45337C20.0485 4.86037 20.2777 5.41237 20.2777 5.98795C20.2777 6.56353 20.0485 7.11553 19.6406 7.52253C19.2327 7.92953 18.6795 8.15817 18.1026 8.15817C17.8168 8.15858 17.5338 8.10273 17.2697 7.99381C17.0056 7.88489 16.7657 7.72505 16.5636 7.52344C16.3616 7.32184 16.2014 7.08243 16.0922 6.81894C15.983 6.55545 15.9271 6.27306 15.9275 5.98795C15.9275 4.78849 16.9004 3.81773 18.1026 3.81773Z" fill="url(#paint0_linear_68_83)"/>
<path d="M25.2317 49C37.8989 49 37.1083 43.519 37.1083 43.519L37.0927 37.8404H25.0056V36.1368H41.8952C41.8952 36.1368 50 37.0547 50 24.302C50 11.5493 42.9258 12.002 42.9258 12.002H38.7034V17.9186C38.7034 17.9186 38.9311 24.9772 31.7415 24.9772H19.7542C19.7542 24.9772 13.0183 24.8683 13.0183 31.4726V42.3926C13.0183 42.3926 11.9955 49 25.2317 49ZM31.8974 45.1821C31.6117 45.1825 31.3286 45.1267 31.0645 45.0177C30.8005 44.9088 30.5605 44.749 30.3585 44.5474C30.1564 44.3457 29.9962 44.1063 29.887 43.8428C29.7779 43.5793 29.7219 43.2969 29.7223 43.0118C29.7226 42.583 29.8503 42.1639 30.0893 41.8075C30.3282 41.4511 30.6677 41.1733 31.0648 41.0094C31.4619 40.8454 31.8988 40.8026 32.3203 40.8864C32.7418 40.9701 33.1289 41.1766 33.4328 41.4798C33.7367 41.783 33.9436 42.1693 34.0276 42.5899C34.1115 43.0104 34.0686 43.4464 33.9043 43.8426C33.7399 44.2388 33.4616 44.5775 33.1044 44.816C32.7472 45.0544 32.3272 45.1818 31.8974 45.1821Z" fill="url(#paint1_linear_68_83)"/>
<defs>
<linearGradient id="paint0_linear_68_83" x1="4.79461" y1="4.328" x2="29.4105" y2="29.082" gradientUnits="userSpaceOnUse">
<stop stop-color="#387EB8"/>
<stop offset="1" stop-color="#366994"/>
</linearGradient>
<linearGradient id="paint1_linear_68_83" x1="20.0769" y1="19.5164" x2="46.5183" y2="44.9045" gradientUnits="userSpaceOnUse">
<stop stop-color="#FFE052"/>
<stop offset="1" stop-color="#FFC331"/>
</linearGradient>
</defs>
</svg>
