<svg width="53" height="31" viewBox="0 0 53 31" fill="none" xmlns="http://www.w3.org/2000/svg">
<path d="M53 30.1961C51.0721 30.6903 49.8796 30.2178 48.8097 28.5981L41.2009 17.9849L40.1011 16.5154L31.2153 28.6331C30.2001 30.0909 29.1351 30.7254 27.2403 30.2094L38.6188 14.8106L28.0254 0.901196C29.8473 0.54386 31.106 0.725867 32.224 2.37061L40.116 13.1157L48.066 2.42906C49.0846 0.971328 50.1794 0.416956 52.0079 0.95463L47.9004 6.44491L42.3354 13.7503C41.6729 14.5852 41.764 15.1562 42.3735 15.9627L53 30.1961ZM0.01325 14.5534L0.944062 9.93812C3.47812 0.804349 13.8628 -2.99109 21.0244 2.65281C25.2098 5.97236 26.2499 10.6678 26.0429 15.9277H2.45125C2.09681 25.3954 8.85597 31.1094 17.4734 28.194C20.4961 27.1704 22.2766 24.7843 23.1676 21.7987C23.6198 20.3025 24.3684 20.0688 25.763 20.4962C25.0508 24.2299 23.4442 27.3491 20.0489 29.3011C14.9758 32.2232 7.73469 31.2781 3.92531 27.2172C1.65625 24.8611 0.718813 21.8755 0.298125 18.6828C0.231875 18.1552 0.099375 17.6526 0 17.1466C0.00883333 16.2828 0.01325 15.4189 0.01325 14.5551V14.5534ZM2.49431 13.9189H23.8136C23.6744 7.07276 19.446 2.21032 13.6674 2.16857C7.32394 2.11848 2.76925 6.8657 2.49431 13.9189Z" fill="#77BEF8"/>
</svg>
