<svg width="50" height="50" viewBox="0 0 50 50" fill="none" xmlns="http://www.w3.org/2000/svg">
<g clip-path="url(#clip0_68_173)">
<path d="M7.22402 39.1418C6.93108 39.3921 6.57446 39.5563 6.1938 39.6161C5.81314 39.6759 5.42335 39.6289 5.06777 39.4805L1.28125 37.8918C0.903582 37.7343 0.580673 37.469 0.352818 37.1291C0.124964 36.7892 0.00225314 36.3897 0 35.9805L0 13.7617C0.00221487 13.3525 0.124907 12.953 0.352765 12.613C0.580622 12.2731 0.903552 12.0078 1.28125 11.8502L5.06777 10.2877C5.42333 10.1392 5.81311 10.0922 6.19377 10.152C6.57443 10.2117 6.93106 10.3759 7.22402 10.6262L8.07285 11.3293C7.90069 11.2055 7.69769 11.1317 7.48624 11.116C7.2748 11.1003 7.06312 11.1433 6.87456 11.2403C6.686 11.3373 6.5279 11.4844 6.41769 11.6656C6.30748 11.8467 6.24945 12.0548 6.25 12.2668V37.4752C6.24945 37.6872 6.30748 37.8953 6.41769 38.0764C6.5279 38.2576 6.686 38.4048 6.87456 38.5017C7.06312 38.5987 7.2748 38.6417 7.48624 38.626C7.69769 38.6103 7.90069 38.5365 8.07285 38.4127L7.22402 39.1418Z" fill="#52218A"/>
<path d="M1.28125 37.8919C0.903582 37.7344 0.580673 37.4691 0.352818 37.1292C0.124964 36.7893 0.00225314 36.3898 0 35.9806L0 35.8087C0.00256643 36.0492 0.0771436 36.2834 0.214107 36.4811C0.351071 36.6788 0.544135 36.8309 0.768384 36.9177C0.992634 37.0046 1.23778 37.0223 1.47218 36.9685C1.70658 36.9147 1.91947 36.7919 2.0834 36.616L34.375 0.912829C34.8323 0.457797 35.4192 0.15545 36.0552 0.0472888C36.6912 -0.0608729 37.3451 0.0304517 37.9271 0.308728L48.2291 5.26693C48.7598 5.52207 49.2075 5.92194 49.5209 6.42047C49.8342 6.91899 50.0003 7.4959 50 8.0847V8.20443C49.9996 7.83091 49.8933 7.46515 49.6934 7.14964C49.4935 6.83413 49.2081 6.58183 48.8705 6.42203C48.5329 6.26223 48.1569 6.2015 47.7861 6.24689C47.4153 6.29228 47.0651 6.44193 46.776 6.67845L8.07285 38.4128L7.22402 39.1419C6.93109 39.3923 6.57446 39.5564 6.1938 39.6162C5.81314 39.676 5.42335 39.6291 5.06777 39.4806L1.28125 37.8919Z" fill="#6C33AF"/>
<path d="M1.28125 11.8502C0.903552 12.0078 0.580622 12.2731 0.352765 12.613C0.124907 12.953 0.00221487 13.3525 0 13.7617L0 13.9336C0.002528 13.6931 0.0770775 13.4589 0.214026 13.2612C0.350975 13.0635 0.544038 12.9114 0.768295 12.8244C0.992552 12.7375 1.23771 12.7198 1.47213 12.7736C1.70655 12.8274 1.91946 12.9502 2.0834 13.1262L34.375 48.8293C34.8323 49.2844 35.4192 49.5868 36.0552 49.695C36.6912 49.8032 37.3451 49.7119 37.9271 49.4336L48.2291 44.4752C48.7598 44.2201 49.2075 43.8202 49.5209 43.3217C49.8342 42.8232 50.0003 42.2463 50 41.6575V41.5377C49.9996 41.9112 49.8933 42.277 49.6934 42.5925C49.4935 42.908 49.2081 43.1603 48.8705 43.3201C48.5329 43.4799 48.1569 43.5407 47.7861 43.4953C47.4153 43.4499 47.0651 43.3002 46.776 43.0637L8.07285 11.3293L7.22402 10.6002C6.92846 10.3542 6.57058 10.1948 6.19 10.1396C5.80943 10.0845 5.42102 10.1357 5.06777 10.2877L1.28125 11.8502Z" fill="#854CC7"/>
<path d="M37.9271 49.4336C37.3451 49.7119 36.6912 49.8032 36.0552 49.695C35.4192 49.5868 34.8323 49.2844 34.375 48.8293C34.6317 49.0841 34.958 49.2573 35.3129 49.3271C35.6677 49.3968 36.0353 49.3601 36.3694 49.2215C36.7034 49.0829 36.989 48.8485 37.1902 48.548C37.3913 48.2474 37.4991 47.8941 37.5 47.5324V2.21993C37.5012 1.85739 37.3949 1.50262 37.1945 1.20049C36.9941 0.898362 36.7086 0.662428 36.3741 0.522517C36.0397 0.382606 35.6712 0.345 35.3154 0.414451C34.9596 0.483903 34.6323 0.657295 34.375 0.912707C34.8323 0.457675 35.4192 0.155328 36.0552 0.0471667C36.6912 -0.060995 37.3451 0.0303297 37.9271 0.308606L48.2291 5.26173C48.7597 5.51685 49.2075 5.91669 49.5208 6.41518C49.8341 6.91367 50.0002 7.49053 50 8.07931V41.6627C50.0003 42.2515 49.8342 42.8284 49.5209 43.3269C49.2075 43.8255 48.7598 44.2253 48.2291 44.4805L37.9271 49.4336Z" fill="#B179F1"/>
<path d="M35.8803 49.6627C36.5689 49.8198 37.2903 49.7391 37.9271 49.4336L48.2291 44.4805C48.7598 44.2253 49.2075 43.8255 49.5209 43.3269C49.8342 42.8284 50.0003 42.2515 50 41.6627V8.0793C50.0002 7.49052 49.8341 6.91366 49.5208 6.41517C49.2075 5.91668 48.7597 5.51684 48.2291 5.26172L37.9271 0.308596C37.1982 -0.0418562 36.3618 -0.0960442 35.5938 0.157424C35.1345 0.311322 34.7172 0.569885 34.375 0.912697L17.7709 19.2773L8.07285 11.3293L7.22402 10.6002C6.96868 10.3819 6.66433 10.2286 6.33693 10.1533C6.00953 10.0781 5.66879 10.0831 5.34375 10.168C5.2486 10.189 5.15605 10.2204 5.06777 10.2617L1.28125 11.8502C0.926846 11.9965 0.619701 12.2378 0.393638 12.5475C0.167575 12.8572 0.0313624 13.2233 0 13.6055L0 36.1367C0.0638672 36.9158 0.558594 37.5936 1.28125 37.8918L5.06777 39.4543C5.15605 39.4956 5.2486 39.527 5.34375 39.548C6.00352 39.7203 6.70566 39.559 7.22402 39.1158L8.07285 38.4127L17.7709 30.4648L34.375 48.8293C34.7889 49.2425 35.3104 49.5312 35.8803 49.6627ZM37.5 14.2877L24.5885 24.8711L37.5 35.4543V14.2877ZM6.25 17.7199L12.7135 24.8711L6.25 32.0221V17.7199Z" fill="url(#paint0_linear_68_173)" fill-opacity="0.25"/>
</g>
<defs>
<linearGradient id="paint0_linear_68_173" x1="2500" y1="0.099482" x2="2500" y2="4974.1" gradientUnits="userSpaceOnUse">
<stop stop-color="white"/>
<stop offset="1" stop-color="white" stop-opacity="0"/>
</linearGradient>
<clipPath id="clip0_68_173">
<rect width="50" height="50" fill="white"/>
</clipPath>
</defs>
</svg>
