<svg width="50" height="50" viewBox="0 0 50 50" fill="none" xmlns="http://www.w3.org/2000/svg">
<path d="M49.0558 22.774L27.226 0.942293C26.6221 0.338924 25.8034 0 24.9497 0C24.096 0 23.2773 0.338924 22.6734 0.942293L18.1402 5.47347L23.8902 11.2253C24.5683 10.994 25.2978 10.9579 25.9954 11.1211C26.6931 11.2844 27.3308 11.6405 27.8358 12.1488C28.3408 12.657 28.6928 13.297 28.8516 13.9957C29.0103 14.6944 28.9695 15.4236 28.7338 16.1002L34.2747 21.6431C35.103 21.3584 36.0038 21.3661 36.827 21.665C37.6502 21.9639 38.3461 22.5359 38.7988 23.2856C39.2514 24.0354 39.4334 24.9176 39.3144 25.7853C39.1955 26.653 38.7828 27.4537 38.145 28.054C37.5073 28.6542 36.6831 29.0178 35.8098 29.0841C34.9366 29.1504 34.0669 28.9154 33.3459 28.4183C32.6249 27.9211 32.096 27.1919 31.8474 26.3521C31.5988 25.5123 31.6456 24.6127 31.9799 23.8032L26.812 18.6334V32.2347C27.5975 32.6232 28.2261 33.2691 28.5931 34.0648C28.9602 34.8605 29.0434 35.758 28.8289 36.6076C28.6144 37.4573 28.1152 38.2077 27.4145 38.7339C26.7138 39.2601 25.8539 39.5302 24.9781 39.4993C24.1024 39.4683 23.2637 39.1382 22.6019 38.5638C21.9401 37.9895 21.4951 37.2057 21.3411 36.343C21.1871 35.4804 21.3335 34.591 21.7557 33.8232C22.178 33.0553 22.8507 32.4554 23.6616 32.1234V18.399C23.1938 18.2074 22.7685 17.9249 22.4103 17.568C22.0521 17.2112 21.7681 16.7869 21.5748 16.3197C21.3814 15.8525 21.2824 15.3517 21.2836 14.846C21.2848 14.3404 21.3861 13.84 21.5816 13.3737L15.9098 7.7039L0.943269 22.6724C0.339303 23.2764 0 24.0956 0 24.9497C0 25.8039 0.339303 26.623 0.943269 27.227L22.773 49.0567C23.377 49.6607 24.1961 50 25.0503 50C25.9044 50 26.7236 49.6607 27.3276 49.0567L49.0558 27.3286C49.6598 26.7243 49.9992 25.9048 49.9992 25.0503C49.9992 24.1958 49.6598 23.3763 49.0558 22.772" fill="#DE4C36"/>
</svg>
