<svg width="25" height="24" viewBox="0 0 25 24" fill="none" xmlns="http://www.w3.org/2000/svg">
<path d="M8.63636 24L6.47727 20.3429L2.38636 19.4286L2.78409 15.2L0 12L2.78409 8.8L2.38636 4.57143L6.47727 3.65714L8.63636 0L12.5 1.65714L16.3636 0L18.5227 3.65714L22.6136 4.57143L22.2159 8.8L25 12L22.2159 15.2L22.6136 19.4286L18.5227 20.3429L16.3636 24L12.5 22.3429L8.63636 24ZM9.60227 21.0857L12.5 19.8286L15.4545 21.0857L17.0455 18.3429L20.1705 17.6L19.8864 14.4L21.9886 12L19.8864 9.54286L20.1705 6.34286L17.0455 5.65714L15.3977 2.91429L12.5 4.17143L9.54545 2.91429L7.95455 5.65714L4.82955 6.34286L5.11364 9.54286L3.01136 12L5.11364 14.4L4.82955 17.6571L7.95455 18.3429L9.60227 21.0857ZM11.3068 16.0571L17.7273 9.6L16.1364 7.94286L11.3068 12.8L8.86364 10.4L7.27273 12L11.3068 16.0571Z" fill="#77BEF8"/>
</svg>
