<svg width="52" height="51" viewBox="0 0 52 51" fill="none" xmlns="http://www.w3.org/2000/svg">
<mask id="mask0_195_13" style="mask-type:luminance" maskUnits="userSpaceOnUse" x="0" y="0" width="52" height="51">
<path d="M36.3525 50.782C36.7604 50.941 37.1967 51.0145 37.6342 50.9977C38.0717 50.9808 38.5011 50.8742 38.8956 50.6843L49.4501 45.6058C49.9937 45.344 50.4523 44.9342 50.7733 44.4233C51.0942 43.9125 51.2645 43.3214 51.2644 42.7181V8.28183C51.2645 7.67855 51.0942 7.08751 50.7733 6.5767C50.4523 6.06589 49.9936 5.65607 49.4501 5.39438L38.8958 0.315663C38.2994 0.0286884 37.6286 -0.0658002 36.9761 0.0452761C36.3237 0.156352 35.7219 0.4675 35.2541 0.935652L15.0488 19.3694L6.2475 12.6887C5.8505 12.3873 5.36052 12.2345 4.86258 12.2566C4.36465 12.2787 3.89017 12.4745 3.52149 12.8099L0.698769 15.3777C-0.232018 16.2243 -0.233023 17.6886 0.696357 18.5366L8.32901 25.5L0.696357 32.4632C-0.233023 33.3113 -0.232018 34.7755 0.698769 35.6222L3.52149 38.1898C3.89015 38.5253 4.36461 38.7211 4.86255 38.7432C5.36049 38.7654 5.85048 38.6126 6.2475 38.3113L15.0488 31.6303L35.2541 50.0641C35.5665 50.377 35.9405 50.6215 36.3525 50.782ZM38.4561 13.8623L23.1249 25.5L38.4561 37.1374V13.8623Z" fill="white"/>
</mask>
<g mask="url(#mask0_195_13)">
<path d="M49.4814 5.40254L38.9187 0.316783C38.3222 0.0295761 37.6511 -0.0651139 36.9984 0.0458163C36.3456 0.156747 35.7435 0.467812 35.2754 0.935967L0.696734 32.4635C-0.233249 33.3117 -0.232043 34.7758 0.699146 35.6226L3.52367 38.1902C3.89266 38.5257 4.36742 38.7215 4.86565 38.7437C5.36388 38.7658 5.85416 38.613 6.2515 38.3116L47.892 6.72192C49.289 5.66227 51.2955 6.6586 51.2955 8.41201V8.28938C51.2955 7.68622 51.1253 7.09532 50.8044 6.58462C50.4834 6.07393 50.0249 5.66419 49.4814 5.40254Z" fill="#0065A9"/>
</g>
<mask id="mask1_195_13" style="mask-type:luminance" maskUnits="userSpaceOnUse" x="0" y="0" width="52" height="51">
<path d="M36.3525 50.782C36.7604 50.941 37.1967 51.0145 37.6342 50.9977C38.0717 50.9808 38.5011 50.8742 38.8956 50.6843L49.4501 45.6058C49.9937 45.344 50.4523 44.9342 50.7733 44.4233C51.0942 43.9125 51.2645 43.3214 51.2644 42.7181V8.28183C51.2645 7.67855 51.0942 7.08751 50.7733 6.5767C50.4523 6.06589 49.9936 5.65607 49.4501 5.39438L38.8958 0.315663C38.2994 0.0286884 37.6286 -0.0658002 36.9761 0.0452761C36.3237 0.156352 35.7219 0.4675 35.2541 0.935652L15.0488 19.3694L6.2475 12.6887C5.8505 12.3873 5.36052 12.2345 4.86258 12.2566C4.36465 12.2787 3.89017 12.4745 3.52149 12.8099L0.698769 15.3777C-0.232018 16.2243 -0.233023 17.6886 0.696357 18.5366L8.32901 25.5L0.696357 32.4632C-0.233023 33.3113 -0.232018 34.7755 0.698769 35.6222L3.52149 38.1898C3.89015 38.5253 4.36461 38.7211 4.86255 38.7432C5.36049 38.7654 5.85048 38.6126 6.2475 38.3113L15.0488 31.6303L35.2541 50.0641C35.5665 50.377 35.9405 50.6215 36.3525 50.782ZM38.4561 13.8623L23.1249 25.5L38.4561 37.1374V13.8623Z" fill="white"/>
</mask>
<g mask="url(#mask1_195_13)">
<path d="M49.4814 45.5976L38.9187 50.6833C38.3221 50.9705 37.6511 51.0651 36.9984 50.9542C36.3457 50.8433 35.7436 50.5322 35.2754 50.0641L0.696734 18.5366C-0.233249 17.6887 -0.232043 16.2243 0.699146 15.3778L3.52367 12.81C3.89269 12.4745 4.36746 12.2787 4.86569 12.2566C5.36391 12.2344 5.85418 12.3873 6.2515 12.6887L47.892 44.2782C49.289 45.3378 51.2955 44.3415 51.2955 42.5879V42.7107C51.2955 43.3139 51.1252 43.9048 50.8043 44.4155C50.4834 44.9262 50.0249 45.3359 49.4814 45.5976Z" fill="#007ACC"/>
</g>
<mask id="mask2_195_13" style="mask-type:luminance" maskUnits="userSpaceOnUse" x="0" y="0" width="52" height="51">
<path d="M36.3525 50.782C36.7604 50.941 37.1967 51.0145 37.6342 50.9977C38.0717 50.9808 38.5011 50.8742 38.8956 50.6843L49.4501 45.6058C49.9937 45.344 50.4523 44.9342 50.7733 44.4233C51.0942 43.9125 51.2645 43.3214 51.2644 42.7181V8.28183C51.2645 7.67855 51.0942 7.08751 50.7733 6.5767C50.4523 6.06589 49.9936 5.65607 49.4501 5.39438L38.8958 0.315663C38.2994 0.0286884 37.6286 -0.0658002 36.9761 0.0452761C36.3237 0.156352 35.7219 0.4675 35.2541 0.935652L15.0488 19.3694L6.2475 12.6887C5.8505 12.3873 5.36052 12.2345 4.86258 12.2566C4.36465 12.2787 3.89017 12.4745 3.52149 12.8099L0.698769 15.3777C-0.232018 16.2243 -0.233023 17.6886 0.696357 18.5366L8.32901 25.5L0.696357 32.4632C-0.233023 33.3113 -0.232018 34.7755 0.698769 35.6222L3.52149 38.1898C3.89015 38.5253 4.36461 38.7211 4.86255 38.7432C5.36049 38.7654 5.85048 38.6126 6.2475 38.3113L15.0488 31.6303L35.2541 50.0641C35.5665 50.377 35.9405 50.6215 36.3525 50.782ZM38.4561 13.8623L23.1249 25.5L38.4561 37.1374V13.8623Z" fill="white"/>
</mask>
<g mask="url(#mask2_195_13)">
<path d="M38.8852 50.6872C38.2885 50.9742 37.6174 51.0688 36.9646 50.9577C36.3119 50.8467 35.7097 50.5356 35.2415 50.0674C36.4238 51.2495 38.4456 50.4122 38.4456 48.74V2.26601C38.4456 0.593814 36.4238 -0.243492 35.2415 0.938788C35.7097 0.470596 36.3119 0.159451 36.9646 0.0483827C37.6174 -0.062686 38.2885 0.031809 38.8852 0.3188L49.4461 5.39752C49.9899 5.65903 50.4488 6.06878 50.77 6.57961C51.0911 7.09043 51.2615 7.68157 51.2615 8.28497V42.7215C51.2615 43.9528 50.5559 45.0754 49.4461 45.6089L38.8852 50.6872Z" fill="#1F9CF0"/>
</g>
<mask id="mask3_195_13" style="mask-type:luminance" maskUnits="userSpaceOnUse" x="0" y="0" width="52" height="51">
<path d="M36.3525 50.782C36.7604 50.941 37.1967 51.0145 37.6342 50.9977C38.0717 50.9808 38.5011 50.8742 38.8956 50.6843L49.4501 45.6058C49.9937 45.344 50.4523 44.9342 50.7733 44.4233C51.0942 43.9125 51.2645 43.3214 51.2644 42.7181V8.28183C51.2645 7.67855 51.0942 7.08751 50.7733 6.5767C50.4523 6.06589 49.9936 5.65607 49.4501 5.39438L38.8958 0.315663C38.2994 0.0286884 37.6286 -0.0658002 36.9761 0.0452761C36.3237 0.156352 35.7219 0.4675 35.2541 0.935652L15.0488 19.3694L6.2475 12.6887C5.8505 12.3873 5.36052 12.2345 4.86258 12.2566C4.36465 12.2787 3.89017 12.4745 3.52149 12.8099L0.698769 15.3777C-0.232018 16.2243 -0.233023 17.6886 0.696357 18.5366L8.32901 25.5L0.696357 32.4632C-0.233023 33.3113 -0.232018 34.7755 0.698769 35.6222L3.52149 38.1898C3.89015 38.5253 4.36461 38.7211 4.86255 38.7432C5.36049 38.7654 5.85048 38.6126 6.2475 38.3113L15.0488 31.6303L35.2541 50.0641C35.5665 50.377 35.9405 50.6215 36.3525 50.782ZM38.4561 13.8623L23.1249 25.5L38.4561 37.1374V13.8623Z" fill="white"/>
</mask>
<g mask="url(#mask3_195_13)">
<path d="M36.3525 50.7819C36.7604 50.9409 37.1967 51.0143 37.6342 50.9975C38.0717 50.9807 38.5011 50.874 38.8956 50.6842L49.4499 45.6055C49.9935 45.3438 50.4522 44.934 50.7732 44.4232C51.0942 43.9124 51.2645 43.3213 51.2644 42.718V8.28172C51.2645 7.67844 51.0942 7.0874 50.7733 6.57659C50.4523 6.06578 49.9936 5.65596 49.4501 5.39427L38.8954 0.315354C38.299 0.0284251 37.6282 -0.0660385 36.9758 0.0450369C36.3234 0.156112 35.7217 0.467234 35.2539 0.935342L15.0488 19.3693L6.2475 12.6886C5.8505 12.3872 5.36052 12.2344 4.86258 12.2565C4.36465 12.2786 3.89017 12.4744 3.52149 12.8098L0.698769 15.3776C-0.232018 16.2242 -0.233023 17.6885 0.696357 18.5365L8.32901 25.4999L0.696357 32.4631C-0.233023 33.3112 -0.232018 34.7754 0.698769 35.6221L3.52149 38.1897C3.89015 38.5252 4.36461 38.721 4.86255 38.7431C5.36049 38.7653 5.85048 38.6125 6.2475 38.3112L15.0488 31.6302L35.2539 50.064C35.5663 50.3769 35.9405 50.6214 36.3525 50.7819ZM38.4561 13.862L23.1249 25.4999L38.4561 37.1373V13.862Z" fill="url(#paint0_linear_195_13)" fill-opacity="0.25"/>
</g>
<defs>
<linearGradient id="paint0_linear_195_13" x1="2563.22" y1="-0.000244141" x2="2563.22" y2="5100.01" gradientUnits="userSpaceOnUse">
<stop stop-color="white"/>
<stop offset="1" stop-color="white" stop-opacity="0"/>
</linearGradient>
</defs>
</svg>
