<svg width="44" height="50" viewBox="0 0 44 50" fill="none" xmlns="http://www.w3.org/2000/svg">
<g clip-path="url(#clip0_68_151)">
<path d="M3.94231 44.2308L0 0H43.3654L39.4231 44.2308L21.6346 49.2308" fill="#0C73B8"/>
<path d="M21.7308 45.3846L36.0577 41.4423L39.4231 3.55768H21.7308" fill="#30A9DC"/>
<path d="M21.7308 20H9.03846L9.51923 25.4808H21.7308V20ZM21.7308 9.03845H8.07692L8.55769 14.4231H21.7308V9.03845ZM21.7308 34.1346L9.80769 30.9615L10.4808 36.7308L21.7308 39.8077V34.1346Z" fill="#ECEDEE"/>
<path d="M21.7308 25.4808H28.3654L27.6923 32.5L21.7308 34.1346V39.8077L32.7885 36.7308L35.2885 9.03845H21.7308V14.4231H29.4231L28.8462 20H21.7308V25.4808Z" fill="white"/>
</g>
<defs>
<clipPath id="clip0_68_151">
<rect width="43.4615" height="50" fill="white"/>
</clipPath>
</defs>
</svg>
